<svg xmlns="http://www.w3.org/2000/svg" id="Layer_1" data-name="Layer 1" viewBox="0 0 1080 1080">
    <defs/>
    <path d="M739.64 734.23c28.97-4.1 52.87-16.21 71.69-36.42 23.6-25.34 35.41-58.85 35.41-100.52v-93.74c0-41.66-11.81-75.16-35.41-100.51-18.82-20.2-42.73-32.33-71.7-36.43 26.61 47.13 39.97 108.36 39.97 183.82s-13.36 136.69-39.96 183.81ZM262.41 390.53C238.8 407.55 227 429.95 227 457.72v185.4c0 27.79 11.8 50.18 35.41 67.19a126.73 126.73 0 0 0 30.76 16.22V374.31a126.55 126.55 0 0 0-30.76 16.22ZM624.4 697.81c23.6-25.34 35.41-58.85 35.41-100.52v-93.74c0-41.66-11.81-75.16-35.41-100.51a120.37 120.37 0 0 0-4.76-4.82c-17.32 15.9-26 35.73-26 59.51v185.4c0 23.8 8.68 43.62 26 59.51 1.62-1.56 3.21-3.16 4.76-4.83ZM444.69 697.81c23.6-25.34 35.41-58.85 35.41-100.52v-93.74c0-41.66-11.81-75.16-35.41-100.51a120.35 120.35 0 0 0-8.28-8.04c-19.78 16.42-29.7 37.32-29.7 62.73v185.4c0 25.43 9.92 46.33 29.7 62.74 2.86-2.53 5.63-5.2 8.28-8.05Z"
          class="cls-2"/>
    <path d="M262.41 710.31C238.8 693.3 227 670.91 227 643.12v-185.4c0-27.76 11.8-50.16 35.41-67.19a127.43 127.43 0 0 1 30.76-16.22v-82.66c-1.06.66-2.12 1.32-3.16 2.01-26.74 17.71-46.01 42.88-57.81 75.52h-5.21V50.44H113.45v783.29h113.54V731.65h5.21c11.8 31.95 31.07 56.95 57.81 75 1.04.7 2.1 1.37 3.16 2.04v-82.17a126.55 126.55 0 0 1-30.76-16.22ZM411.92 731.66h-5.21V832.8c27.13-2.3 51.56-8.89 73.29-19.77-3.5-1.98-6.92-4.1-10.27-6.36-26.74-18.05-46.01-43.05-57.81-75ZM411.92 369.18c11.8-32.63 31.07-57.81 57.81-75.52a154.3 154.3 0 0 1 9.89-6.02c-21.63-10.77-45.94-17.3-72.91-19.59v101.13h5.21ZM598.85 369.18c11.8-32.63 31.07-57.81 57.81-75.52 2.13-1.41 4.31-2.75 6.5-4.05-20.67-10.93-43.84-17.89-69.52-20.85v100.42h5.21ZM598.85 731.66h-5.21v100.42c25.85-2.98 49.15-10 69.92-21.05-2.33-1.4-4.64-2.84-6.9-4.36-26.74-18.05-46.01-43.05-57.81-75ZM406.71 268.05V50.44H293.17v241.21c26.03-16.36 56.4-24.56 91.11-24.56 7.67 0 15.14.33 22.43.95Z"
          class="cls-2"/>
    <path d="m480.11 287.36-.49.28.49.24v-.51Z"
          style="opacity:.4;fill:none;;stroke-miterlimit:10;stroke-width:5.25px"/>
    <path d="M349.91 365.01c35.13 0 63.95 10.01 86.5 29.98 1.83-1.52 3.71-3.01 5.71-4.46a128.64 128.64 0 0 1 37.98-18.64v-84.02l-.49-.24a148.96 148.96 0 0 0-9.89 6.02c-26.74 17.71-46.01 42.88-57.81 75.52h-5.21V268.04c-7.29-.62-14.75-.95-22.43-.95-34.71 0-65.07 8.2-91.11 24.56v82.66c16.89-6.18 35.79-9.3 56.73-9.3ZM480.11 728.95a128.16 128.16 0 0 1-37.98-18.64c-2-1.44-3.88-2.93-5.71-4.45-22.55 19.97-51.37 29.97-86.5 29.97-20.94 0-39.84-3.11-56.73-9.29v82.17c26.03 16.67 56.4 25.04 91.11 25.04 7.67 0 15.14-.33 22.43-.95V731.66h5.21c11.8 31.95 31.07 56.95 57.81 75 3.35 2.26 6.78 4.38 10.27 6.36l.11-.05v-84.02ZM910.29 341.57c-37.5-49.64-90.62-74.47-159.37-74.47-33.23 0-62.48 7.52-87.76 22.51 23.23 12.29 43.31 29.6 60.2 51.96a225.47 225.47 0 0 1 16.28 25.03c28.97 4.1 52.88 16.23 71.7 36.43 23.6 25.35 35.41 58.85 35.41 100.51v93.74c0 41.67-11.81 75.18-35.41 100.52-18.82 20.21-42.73 32.33-71.69 36.42a223.2 223.2 0 0 1-16.29 25.03c-16.79 22.24-36.73 39.48-59.8 51.76 25.19 15.12 54.31 22.72 87.37 22.72 68.75 0 121.87-24.82 159.37-74.47 37.5-49.64 56.25-119.26 56.25-208.84S947.8 391.23 910.3 341.58Z"
          class="cls-2"/>
    <path d="M593.64 268.75h-.12l.12.01Z"
          style="fill:none;;stroke-miterlimit:10;stroke-width:5.25px;opacity:.6"/>
    <path d="M480.11 813.08v216.48h113.54V832.08a258.72 258.72 0 0 1-29.65 1.66c-31.54 0-59.51-6.89-83.88-20.66ZM593.64 467.83c-6.25-38.32-17.23-71.6-32.94-99.85a158.19 158.19 0 0 0-31.09-2.97c-18 0-34.5 2.31-49.51 6.88v357.06c15.01 4.57 31.51 6.87 49.51 6.87a158.2 158.2 0 0 0 31.09-2.96c15.7-28.25 26.68-61.53 32.93-99.84V467.84Z"
          class="cls-2"/>
    <path d="M723.36 759.26a225.54 225.54 0 0 0 16.29-25.03 165.04 165.04 0 0 1-23.09 1.59c-34.73 0-63.89-8.5-87.49-25.51a100.84 100.84 0 0 1-9.41-7.68c-16.2 15.56-35.85 25.61-58.93 30.22a226.47 226.47 0 0 1-17.06 26.41c-17.7 23.43-38.88 41.33-63.54 53.7v.11c24.38 13.77 52.34 20.66 83.88 20.66 10.23 0 20.11-.56 29.65-1.66V731.65h5.21c11.8 31.95 31.07 56.95 57.81 75 2.26 1.53 4.57 2.97 6.9 4.36 23.06-12.28 43-29.52 59.8-51.76ZM663.16 289.61c-2.19 1.3-4.37 2.64-6.5 4.05-26.74 17.71-46.01 42.88-57.81 75.52h-5.21V268.76l-.12-.01a258.92 258.92 0 0 0-29.53-1.65c-8.83 0-17.37.54-25.64 1.6-21.27 2.72-40.69 8.94-58.24 18.67v.51c24.66 12.37 45.84 30.27 63.54 53.7a225.5 225.5 0 0 1 17.06 26.4c23.09 4.62 42.74 14.68 58.94 30.23 2.9-2.67 6.02-5.23 9.41-7.68 23.6-17 52.76-25.52 87.49-25.52 8.03 0 15.71.55 23.09 1.59a225.47 225.47 0 0 0-16.28-25.03"
          class="cls-2"/>
</svg>
